<?xml version="1.0" standalone="no"?>
<!DOCTYPE svg PUBLIC "-//W3C//DTD SVG 20010904//EN"
 "http://www.w3.org/TR/2001/REC-SVG-20010904/DTD/svg10.dtd">
<svg version="1.0" xmlns="http://www.w3.org/2000/svg"
 width="290.000000pt" height="10.000000pt" viewBox="0 0 290.000000 10.000000"
 preserveAspectRatio="xMidYMid meet">

<g transform="translate(0.000000,10.000000) scale(0.100000,-0.100000)"
fill="#000000" stroke="none">
<path d="M81 93 c-41 -8 -71 -34 -71 -59 l0 -24 233 1 c127 0 286 4 352 8 66
4 489 2 940 -4 1093 -13 1340 -10 1352 22 3 8 2 18 -3 23 -17 15 -824 33
-1009 22 -158 -9 -1331 -1 -1650 12 -66 2 -131 2 -144 -1z"/>
</g>
</svg>
